<?xml version="1.0" encoding="UTF-8"?>
<svg width="147px" height="108px" viewBox="0 0 147 108" version="1.1" xmlns="http://www.w3.org/2000/svg" xmlns:xlink="http://www.w3.org/1999/xlink">
    <!-- Generator: Sketch 49.3 (51167) - http://www.bohemiancoding.com/sketch -->
    <title>Group 11</title>
    <desc>Created with Sketch.</desc>
    <defs></defs>
    <g id="Page-1" stroke="none" stroke-width="1" fill="none" fill-rule="evenodd">
        <g id="Desktop-HD-//-3er-Grid---Hellgrün" transform="translate(-622.000000, -1444.000000)">
            <g id="Group-11" transform="translate(624.000000, 1447.000000)">
                <g id="Group-6" transform="translate(0.000000, 8.000000)">
                    <path d="M124.035408,12.1456605 L124.035408,96.361163 L16.7072021,96.3607017 C7.69432802,94.894214 3.18789098,89.211267 3.18789098,79.3118605 C3.18789098,69.4124541 3.18789098,47.0237208 3.18789098,12.1456605 C6.11594781,4.38578255 11.081539,0.505843557 18.0846646,0.505843557 C28.5893529,0.505843557 33.3072439,9.16480287 33.3072439,12.1456605 C33.3072439,12.1456605 63.5499654,12.1456605 124.035408,12.1456605 Z" id="Path-3" fill="#D5F673"></path>
                    <path d="M35.3301222,4 L35.3301222,82.012412 C35.9060468,70.7563138 30.3224182,65.1282647 18.5792361,65.1282647 C6.83605409,65.1282647 0.964463075,70.7563138 0.964463075,82.012412" id="Path-4" stroke="#FFFFFF" stroke-width="4"></path>
                </g>
                <g id="Page-1" transform="translate(85.000000, 0.000000)">
                    <g id="Group-12">
                        <g>
                            <g id="Group-14">
                                <path d="M55.2360858,38.9376812 L47.9523627,37.7795431 C46.7184708,40.0867367 45.0827784,42.1178479 43.1505369,43.8011912 L46.3111549,50.0664507 L39.4263227,54.1012988 L35.1183784,48.2599363 C32.6557611,49.0164541 30.03334,49.3493432 27.3668295,49.2041757 L25.0563717,55.8218048 L17.268466,53.9269571 L18.4637903,46.8166354 C16.0979707,45.6137874 14.0190478,44.0192032 12.297294,42.1362988 L5.87424779,45.2256288 L1.74849318,38.5101939 L7.73716114,34.3011793 C6.96247424,31.8977293 6.6260951,29.3393148 6.77828538,26.7336885 L0,24.486291 L1.94874667,16.8841236 L9.23233533,18.0380345 C10.4671965,15.7322674 12.1028889,13.7011561 14.0320628,12.0185677 L10.8749019,5.75250647 L17.7590981,1.71889219 L22.06709,7.56063478 C24.5298586,6.80216993 27.1516913,6.47089465 29.8210705,6.61687429 L32.1284607,0 L39.9151506,1.89460826 L38.7263509,9.00337339 C41.0874976,10.2067836 43.1647677,11.8007952 44.8881268,13.6838922 L51.3095678,10.5943696 L55.4369276,17.3099971 L49.4479178,21.5194386 C50.2223582,23.9240756 50.5593733,26.4812563 50.407183,29.0868826 L57.1854684,31.3342801 L55.2360858,38.9376812 Z" id="Fill-9" stroke="#272830" stroke-width="4"></path>
                                <path d="M30.1183488,20.5241786 C26.2355838,19.5628103 22.2856366,21.9192345 21.3137708,25.7765664 C20.3419503,29.6342656 22.7103162,33.5543969 26.5927113,34.5158105 C30.475801,35.4767661 34.4253782,33.1203872 35.3976139,29.26301 C36.3695249,25.4060455 34.0011138,21.4855468 30.1183488,20.5241786 Z M25.2263152,39.9386331 C18.3323678,38.2321092 14.1284628,31.2725871 15.853783,24.4251016 C17.5794733,17.5775709 24.5907521,13.3944648 31.4847448,15.101356 C38.3786923,16.8078798 42.5825973,23.7674019 40.8572318,30.6145201 C39.1319115,37.4620055 32.1202627,41.6451569 25.2263152,39.9386331 Z" id="Fill-12" fill="#BBEA2F"></path>
                            </g>
                        </g>
                    </g>
                </g>
                <g id="Page-1" transform="translate(51.000000, 45.000000)">
                    <g id="Group-12">
                        <g>
                            <g id="Group-14">
                                <path d="M43.2866388,30.5938924 L37.5810557,29.6839267 C36.6145071,31.4967217 35.3332147,33.0925948 33.8196255,34.4152217 L36.2954429,39.3379256 L30.9023243,42.5081634 L27.527768,37.9185214 C25.5987178,38.5129282 23.5444879,38.774484 21.4557214,38.6604238 L19.6458628,43.8599895 L13.5453366,42.3711806 L14.481674,36.7844993 C12.6284487,35.8394044 10.9999591,34.5865168 9.65125188,33.1070919 L4.61986568,35.5344226 L1.38802457,30.2580095 L6.07914781,26.9509266 C5.47230974,25.0625016 5.20881274,23.0523188 5.32802846,21.005041 L0.018371582,19.2392286 L1.54488981,13.2660971 L7.25036759,14.1727414 C8.21767549,12.3610672 9.49896786,10.7651941 11.0101541,9.44316034 L8.5370447,4.51982652 L13.9296651,1.35055815 L17.3042588,5.94049875 C19.2334274,5.34456208 21.2871965,5.08427437 23.3782102,5.19897266 L25.1856658,0 L31.2852395,1.48862077 L30.3540131,7.07407909 C32.2035781,8.0196157 33.830773,9.27205339 35.1807376,10.7516296 L40.2108663,8.32414755 L43.4439649,13.600712 L38.7525739,16.9081303 C39.3592188,18.7974879 39.623214,20.8067013 39.5039983,22.8539791 L44.8136552,24.6197915 L43.2866388,30.5938924 Z" id="Fill-9" stroke="#272830" stroke-width="4"></path>
                                <path d="M23.785652,16.8468855 C20.9539114,16.1387348 18.073174,17.8744937 17.3643822,20.7158319 C16.6556235,23.5574407 18.3828973,26.4450374 21.2143681,27.1532215 C24.0463456,27.8610683 26.9268131,26.1253427 27.6358747,23.2839712 C28.3446995,20.4429036 26.6173927,17.5550362 23.785652,16.8468855 Z M20.2178413,31.1477114 C15.1900142,29.8906737 12.1240628,24.76424 13.3823567,19.7203333 C14.6409204,14.6763932 19.7543186,11.5950874 24.7821788,12.8523956 C29.810006,14.1094333 32.8759574,19.235867 31.6176305,24.2795031 C30.3593366,29.3234098 25.2456685,32.404749 20.2178413,31.1477114 Z" id="Fill-12" fill="#BBEA2F"></path>
                            </g>
                        </g>
                    </g>
                </g>
            </g>
        </g>
    </g>
</svg>