<?xml version="1.0" encoding="UTF-8"?>
<svg width="141px" height="99px" viewBox="0 0 141 99" version="1.1" xmlns="http://www.w3.org/2000/svg" xmlns:xlink="http://www.w3.org/1999/xlink">
    <!-- Generator: Sketch 49.3 (51167) - http://www.bohemiancoding.com/sketch -->
    <title>Group 15</title>
    <desc>Created with Sketch.</desc>
    <defs></defs>
    <g id="Page-1" stroke="none" stroke-width="1" fill="none" fill-rule="evenodd">
        <g id="Desktop-HD-//-3er-Grid---Hellgrün" transform="translate(-953.000000, -1450.000000)">
            <g id="Group-15" transform="translate(953.000000, 1450.000000)">
                <g id="Group-8" transform="translate(116.000000, 16.000000)" fill="#272830">
                    <rect id="Rectangle-15" x="0" y="0" width="25" height="8" rx="4"></rect>
                    <rect id="Rectangle-15" x="0" y="20" width="25" height="8" rx="4"></rect>
                    <rect id="Rectangle-15" x="0" y="40" width="25" height="8" rx="4"></rect>
                    <rect id="Rectangle-15" x="0" y="60" width="25" height="8" rx="4"></rect>
                </g>
                <g id="Group-13" transform="translate(0.000000, 16.000000)" fill="#272830">
                    <rect id="Rectangle-15" x="0" y="0" width="25" height="8" rx="4"></rect>
                    <rect id="Rectangle-15" x="0" y="20" width="25" height="8" rx="4"></rect>
                    <rect id="Rectangle-15" x="0" y="40" width="25" height="8" rx="4"></rect>
                    <rect id="Rectangle-15" x="0" y="60" width="25" height="8" rx="4"></rect>
                </g>
                <rect id="Rectangle-14" fill="#D5F673" x="21" y="0" width="99" height="99" rx="5"></rect>
                <rect id="Rectangle-14" fill="#BBEA2F" x="38" y="17" width="65" height="65" rx="5"></rect>
            </g>
        </g>
    </g>
</svg>